<svg width="365" height="202" viewBox="0 0 365 202" fill="none" xmlns="http://www.w3.org/2000/svg">
<path d="M32.4883 37.9504H106.574V63.0611L39.4865 58.2526L32.4883 37.9504Z" fill="white" stroke="black" stroke-width="63" stroke-linejoin="round"/>
<mask id="path-2-outside-1_682_1834" maskUnits="userSpaceOnUse" x="45.1885" y="5.5" width="350" height="184" fill="black">
<rect fill="white" x="45.1885" y="5.5" width="350" height="184"/>
<path d="M95.9885 157.5L102.548 111.42L77.7485 37.98H106.708L117.748 78.94L119.668 89.5L124.308 78.94L146.388 37.98H177.108L130.228 111.42L123.668 157.5H95.9885ZM167.726 157.5L184.846 37.98H251.886L248.526 59.42L209.486 59.1L205.326 88.22L238.766 87.74L235.886 110.46L202.126 109.98L195.406 157.5H167.726ZM252.101 157.5L269.221 37.98H293.221L321.061 99.9L327.141 120.22L328.261 99.9L335.781 37.98H362.501L345.381 157.5H322.181L294.981 92.38L287.301 70.94L287.461 92.38L278.501 157.5H252.101Z"/>
</mask>
<path d="M95.9885 157.5L102.548 111.42L77.7485 37.98H106.708L117.748 78.94L119.668 89.5L124.308 78.94L146.388 37.98H177.108L130.228 111.42L123.668 157.5H95.9885ZM167.726 157.5L184.846 37.98H251.886L248.526 59.42L209.486 59.1L205.326 88.22L238.766 87.74L235.886 110.46L202.126 109.98L195.406 157.5H167.726ZM252.101 157.5L269.221 37.98H293.221L321.061 99.9L327.141 120.22L328.261 99.9L335.781 37.98H362.501L345.381 157.5H322.181L294.981 92.38L287.301 70.94L287.461 92.38L278.501 157.5H252.101Z" fill="white"/>
<path d="M95.9885 157.5L64.3079 152.99C63.0008 162.171 65.7411 171.468 71.819 178.472C77.897 185.477 86.7147 189.5 95.9885 189.5V157.5ZM102.548 111.42L134.229 115.93C134.934 110.975 134.468 105.924 132.866 101.182L102.548 111.42ZM77.7485 37.98V5.97999C67.4402 5.97999 57.7631 10.9458 51.7521 19.3201C45.7412 27.6944 44.1324 38.4516 47.4305 48.2181L77.7485 37.98ZM106.708 37.98L137.606 29.6522C133.841 15.6848 121.174 5.97999 106.708 5.97999V37.98ZM117.748 78.94L149.232 73.2157C149.073 72.3401 148.877 71.4715 148.646 70.6122L117.748 78.94ZM119.668 89.5L88.1846 95.2243C90.701 109.064 101.96 119.638 115.931 121.281C129.901 122.924 143.306 115.251 148.965 102.373L119.668 89.5ZM124.308 78.94L96.1405 63.7557C95.7334 64.5108 95.3569 65.2819 95.0119 66.0672L124.308 78.94ZM146.388 37.98V5.97999C134.622 5.97999 123.804 12.4379 118.22 22.7957L146.388 37.98ZM177.108 37.98L204.081 55.198C210.37 45.3466 210.788 32.8503 205.171 22.6011C199.554 12.3518 188.796 5.97999 177.108 5.97999V37.98ZM130.228 111.42L103.256 94.202C100.797 98.0533 99.1919 102.386 98.5479 106.91L130.228 111.42ZM123.668 157.5V189.5C139.599 189.5 153.104 177.782 155.349 162.01L123.668 157.5ZM127.669 162.01L134.229 115.93L70.8679 106.91L64.3079 152.99L127.669 162.01ZM132.866 101.182L108.066 27.7419L47.4305 48.2181L72.2305 121.658L132.866 101.182ZM77.7485 69.98H106.708V5.97999H77.7485V69.98ZM75.8111 46.3078L86.8511 87.2678L148.646 70.6122L137.606 29.6522L75.8111 46.3078ZM86.2646 84.6643L88.1846 95.2243L151.152 83.7757L149.232 73.2157L86.2646 84.6643ZM148.965 102.373L153.605 91.8128L95.0119 66.0672L90.3719 76.6272L148.965 102.373ZM152.476 94.1243L174.556 53.1643L118.22 22.7957L96.1405 63.7557L152.476 94.1243ZM146.388 69.98H177.108V5.97999H146.388V69.98ZM150.136 20.762L103.256 94.202L157.201 128.638L204.081 55.198L150.136 20.762ZM98.5479 106.91L91.9879 152.99L155.349 162.01L161.909 115.93L98.5479 106.91ZM123.668 125.5H95.9885V189.5H123.668V125.5ZM167.726 157.5L136.049 152.963C134.734 162.148 137.469 171.451 143.548 178.462C149.626 185.473 158.447 189.5 167.726 189.5V157.5ZM184.846 37.98V5.97999C168.926 5.97999 155.427 17.6832 153.169 33.4426L184.846 37.98ZM251.886 37.98L283.5 42.9345C284.948 33.695 282.282 24.2844 276.202 17.1779C270.122 10.0713 261.238 5.97999 251.886 5.97999V37.98ZM248.526 59.42L248.264 91.4189C264.123 91.5489 277.685 80.0429 280.14 64.3745L248.526 59.42ZM209.486 59.1L209.748 27.1011C193.724 26.9697 180.074 38.7111 177.808 54.5745L209.486 59.1ZM205.326 88.22L173.648 83.6945C172.324 92.9572 175.121 102.335 181.303 109.359C187.484 116.384 196.429 120.351 205.785 120.217L205.326 88.22ZM238.766 87.74L270.512 91.7641C271.677 82.5693 268.799 73.3208 262.622 66.4114C256.444 59.5019 247.574 55.6103 238.307 55.7433L238.766 87.74ZM235.886 110.46L235.431 142.457C251.72 142.688 265.583 130.646 267.632 114.484L235.886 110.46ZM202.126 109.98L202.581 77.9832C186.467 77.7541 172.698 89.543 170.441 105.499L202.126 109.98ZM195.406 157.5V189.5C211.348 189.5 224.859 177.766 227.091 161.981L195.406 157.5ZM199.403 162.037L216.523 42.5173L153.169 33.4426L136.049 152.963L199.403 162.037ZM184.846 69.98H251.886V5.97999H184.846V69.98ZM220.272 33.0255L216.912 54.4655L280.14 64.3745L283.5 42.9345L220.272 33.0255ZM248.788 27.4211L209.748 27.1011L209.224 91.0989L248.264 91.4189L248.788 27.4211ZM177.808 54.5745L173.648 83.6945L237.004 92.7455L241.164 63.6255L177.808 54.5745ZM205.785 120.217L239.225 119.737L238.307 55.7433L204.867 56.2233L205.785 120.217ZM207.02 83.7159L204.14 106.436L267.632 114.484L270.512 91.7641L207.02 83.7159ZM236.341 78.4632L202.581 77.9832L201.671 141.977L235.431 142.457L236.341 78.4632ZM170.441 105.499L163.721 153.019L227.091 161.981L233.811 114.461L170.441 105.499ZM195.406 125.5H167.726V189.5H195.406V125.5ZM252.101 157.5L220.424 152.963C219.109 162.148 221.844 171.451 227.923 178.462C234.001 185.473 242.822 189.5 252.101 189.5V157.5ZM269.221 37.98V5.97999C253.301 5.97999 239.802 17.6832 237.544 33.4426L269.221 37.98ZM293.221 37.98L322.407 24.8577C317.241 13.3694 305.817 5.97999 293.221 5.97999V37.98ZM321.061 99.9L351.718 90.727C351.315 89.3797 350.823 88.0604 350.247 86.7777L321.061 99.9ZM327.141 120.22L296.484 129.393C300.941 144.29 315.462 153.826 330.903 151.998C346.344 150.17 358.237 137.507 359.092 121.981L327.141 120.22ZM328.261 99.9L296.494 96.042C296.41 96.7388 296.348 97.4381 296.309 98.1389L328.261 99.9ZM335.781 37.98V5.97999C319.6 5.97999 305.965 18.059 304.014 34.122L335.781 37.98ZM362.501 37.98L394.178 42.5173C395.493 33.3325 392.757 24.0288 386.679 17.0181C380.601 10.0074 371.78 5.97999 362.501 5.97999V37.98ZM345.381 157.5V189.5C361.301 189.5 374.8 177.797 377.058 162.037L345.381 157.5ZM322.181 157.5L292.653 169.833C297.628 181.744 309.273 189.5 322.181 189.5V157.5ZM294.981 92.38L264.855 103.171C265.041 103.69 265.241 104.205 265.453 104.713L294.981 92.38ZM287.301 70.94L317.427 60.1488C312.164 45.4576 297.072 36.7047 281.707 39.4327C266.342 42.1608 255.185 55.5739 255.302 71.1788L287.301 70.94ZM287.461 92.38L319.162 96.7419C319.372 95.2175 319.472 93.6799 319.46 92.1412L287.461 92.38ZM278.501 157.5V189.5C294.489 189.5 308.023 177.7 310.202 161.862L278.501 157.5ZM283.778 162.037L300.898 42.5173L237.544 33.4426L220.424 152.963L283.778 162.037ZM269.221 69.98H293.221V5.97999H269.221V69.98ZM264.035 51.1023L291.875 113.022L350.247 86.7777L322.407 24.8577L264.035 51.1023ZM290.404 109.073L296.484 129.393L357.798 111.047L351.718 90.727L290.404 109.073ZM359.092 121.981L360.212 101.661L296.309 98.1389L295.189 118.459L359.092 121.981ZM360.028 103.758L367.548 41.838L304.014 34.122L296.494 96.042L360.028 103.758ZM335.781 69.98H362.501V5.97999H335.781V69.98ZM330.824 33.4426L313.704 152.963L377.058 162.037L394.178 42.5173L330.824 33.4426ZM345.381 125.5H322.181V189.5H345.381V125.5ZM351.709 145.167L324.509 80.0466L265.453 104.713L292.653 169.833L351.709 145.167ZM325.107 81.5888L317.427 60.1488L257.175 81.7312L264.855 103.171L325.107 81.5888ZM255.302 71.1788L255.462 92.6188L319.46 92.1412L319.3 70.7012L255.302 71.1788ZM255.76 88.0181L246.8 153.138L310.202 161.862L319.162 96.7419L255.76 88.0181ZM278.501 125.5H252.101V189.5H278.501V125.5Z" fill="black" mask="url(#path-2-outside-1_682_1834)"/>
<path d="M32.4883 37.9504H106.574V63.0611L39.4865 58.2526L32.4883 37.9504Z" fill="white"/>
</svg>
