<svg width="394" height="184" viewBox="0 0 394 184" fill="none" xmlns="http://www.w3.org/2000/svg">
<path fill-rule="evenodd" clip-rule="evenodd" d="M63.4622 147.25C62.1552 156.431 64.8954 165.728 70.9734 172.733C77.0513 179.737 85.869 183.76 95.1428 183.76H122.823C131.295 183.76 139.08 180.446 144.852 174.971C150.768 180.587 158.644 183.76 166.88 183.76H194.56C206.751 183.76 217.519 176.899 222.91 166.612C224.048 168.784 225.441 170.836 227.077 172.722C233.155 179.733 241.977 183.76 251.255 183.76H277.655C286.037 183.76 293.744 180.517 299.495 175.149C305.307 180.574 313.061 183.76 321.335 183.76H344.535C360.456 183.76 373.955 172.057 376.212 156.298L393.332 36.7776C394.648 27.5927 391.912 18.289 385.834 11.2783C379.756 4.2676 370.934 0.240234 361.655 0.240234H334.935C326.816 0.240234 319.338 3.28132 313.656 8.34087C307.904 3.22153 300.376 0.240234 292.375 0.240234H268.375C265.378 0.240234 262.466 0.655115 259.699 1.43383C256.909 0.649447 253.998 0.240234 251.04 0.240234H184C182.691 0.240234 181.397 0.319448 180.125 0.473614C178.853 0.319174 177.564 0.240234 176.263 0.240234H145.543C138.217 0.240234 131.259 2.74352 125.703 7.13276C120.194 2.78071 113.264 0.240234 105.863 0.240234H76.9028C75.0535 0.240234 73.2245 0.400051 71.4334 0.710693H31.6428C21.4607 0.710693 11.9065 5.63242 5.9951 13.9228C0.0836968 22.2132 -1.4558 32.8498 1.86239 42.476L8.86057 62.7782C12.9722 74.7063 23.8045 83.0303 36.389 83.9323L61.1835 85.7094L68.9494 108.706L63.4622 147.25ZM95.7966 88.1902L101.703 105.68L95.1428 151.76H122.823L129.383 105.68L176.263 32.2402H145.543L137.229 47.6631V57.3213C137.229 66.0668 133.593 74.4187 127.192 80.3776C120.791 86.3365 112.2 89.3659 103.477 88.7407L95.7966 88.1902ZM344.535 151.76H321.335L294.135 86.6402L286.455 65.2002L286.615 86.6402L277.655 151.76H251.255L268.375 32.2402H292.375L320.215 94.1602L326.295 114.48L327.415 94.1602L334.935 32.2402H361.655L344.535 151.76ZM184 32.2402H251.04L247.68 53.6802L208.64 53.3602L204.48 82.4802L237.92 82.0002L235.04 104.72L201.28 104.24L194.56 151.76H166.88L184 32.2402Z" fill="black"/>
<path d="M105.729 32.2107H31.6426L38.6408 52.5129L84.8673 55.8261L101.703 105.68L95.1426 151.76H122.823L129.383 105.68L176.263 32.2402H145.543L123.463 73.2002L118.823 83.7602L116.903 73.2002L105.863 32.2402H105.729V32.2107Z" fill="white"/>
<path d="M166.88 151.76L184 32.2402H251.04L247.68 53.6802L208.64 53.3602L204.48 82.4802L237.92 82.0002L235.04 104.72L201.28 104.24L194.56 151.76H166.88Z" fill="white"/>
<path d="M268.375 32.2402L251.255 151.76H277.655L286.615 86.6402L286.455 65.2002L294.135 86.6402L321.335 151.76H344.535L361.655 32.2402H334.935L327.415 94.1602L326.295 114.48L320.215 94.1602L292.375 32.2402H268.375Z" fill="white"/>
</svg>
